<?xml version="1.0" encoding="UTF-8" standalone="no"?>
<svg
    xmlns:dc="http://purl.org/dc/elements/1.1/"
    xmlns:cc="http://creativecommons.org/ns#"
    xmlns:rdf="http://www.w3.org/1999/02/22-rdf-syntax-ns#"
    xmlns="http://www.w3.org/2000/svg"
    xmlns:sodipodi="http://sodipodi.sourceforge.net/DTD/sodipodi-0.dtd"
    xmlns:inkscape="http://www.inkscape.org/namespaces/inkscape"
    inkscape:version="1.0 (4035a4f, 2020-05-01)"
    sodipodi:docname="locations.svg"
    id="svg880"
    version="1.1"
    viewBox="0 0 20 20"
    height="20"
    width="20">
  <metadata
     id="metadata884">
    <rdf:RDF>
      <cc:Work
         rdf:about="">
        <dc:format>image/svg+xml</dc:format>
        <dc:type
           rdf:resource="http://purl.org/dc/dcmitype/StillImage" />
        <dc:title></dc:title>
      </cc:Work>
    </rdf:RDF>
  </metadata>
  <sodipodi:namedview
     inkscape:current-layer="Group_37"
     inkscape:window-maximized="0"
     inkscape:window-y="308"
     inkscape:window-x="669"
     inkscape:cy="10"
     inkscape:cx="10"
     inkscape:zoom="33.5"
     showgrid="false"
     id="namedview882"
     inkscape:window-height="957"
     inkscape:window-width="1685"
     inkscape:pageshadow="2"
     inkscape:pageopacity="0"
     guidetolerance="10"
     gridtolerance="10"
     objecttolerance="10"
     borderopacity="1"
     bordercolor="#666666"
     pagecolor="#ffffff" />
  <defs
     id="defs874">
    <clipPath
       id="clip-path">
      <rect
         fill="#fff"
         height="20"
         width="20"
         data-name="Rectangle 42"
         id="Rectangle_42" />
    </clipPath>
  </defs>
  <g
     style="fill:#ffffff"
     clip-path="url(#clip-path)"
     data-name="Group 37"
     id="Group_37">
    <path
       style="fill:#ffffff"
       fill="#ffdf22"
       d="M10,20A10,10,0,1,0,0,10,10,10,0,0,0,10,20Z"
       data-name="Path 33"
       id="Path_33" />
    <path
       style="fill:#ffffff"
       stroke-width="1"
       stroke-miterlimit="10"
       stroke-linejoin="round"
       stroke-linecap="round"
       stroke="#000"
       fill="none"
       transform="translate(-6.689 -4.197)"
       d="M21.383,12.221a11.277,11.277,0,0,1-4.691,9.139A11.277,11.277,0,0,1,12,12.221a4.691,4.691,0,0,1,9.383,0Z"
       data-name="Path 34"
       id="Path_34" />
    <path
       style="fill:#ffffff"
       stroke-width="1"
       stroke-miterlimit="10"
       stroke-linejoin="round"
       stroke-linecap="round"
       stroke="#000"
       fill="none"
       transform="translate(-9.376 -6.884)"
       d="M19.378,17.466a2.558,2.558,0,1,0-2.558-2.558A2.558,2.558,0,0,0,19.378,17.466Z"
       data-name="Path 35"
       id="Path_35" />
    <path
       id="path894"
       d="M 9.8273881,17.610651 C 9.6540021,17.541038 8.8697681,16.896628 8.3766003,16.41853 6.1504831,14.260437 4.8365246,11.182022 4.8359229,8.123234 4.8357658,7.3244991 4.9442163,6.7327212 5.2094129,6.0852245 6.2432936,3.5609291 9.0287719,2.2656626 11.61194,3.1080053 c 0.373613,0.121831 0.936696,0.3960059 1.259091,0.6130726 1.134193,0.7636477 1.91004,1.917278 2.205161,3.2789221 0.08283,0.3821663 0.112246,1.3804412 0.05893,1.9998821 -0.231246,2.6866559 -1.394197,5.2433159 -3.258877,7.1643969 -0.542763,0.559179 -1.285593,1.200621 -1.637438,1.413944 -0.109869,0.06661 -0.2907609,0.08087 -0.4114179,0.03243 z m 0.5307549,-1.334712 c 1.726106,-1.437726 2.990232,-3.4726 3.538323,-5.695666 0.284851,-1.1553614 0.386281,-2.5834414 0.238,-3.3509029 -0.317512,-1.6433545 -1.561354,-2.9225 -3.221118,-3.312542 C 10.61789,3.8473958 10.520794,3.8389435 10.014925,3.8386194 9.5389143,3.8383144 9.398586,3.8489458 9.1417869,3.9047687 7.4782306,4.2663925 6.2390605,5.5176144 5.8749963,7.203331 5.8191932,7.4617146 5.809397,7.5995116 5.8098713,8.119403 c 0.00101,1.111628 0.1699891,2.162103 0.522126,3.245929 0.4732196,1.4565 1.3452251,2.929184 2.3730985,4.007802 0.528166,0.554241 1.2043048,1.161539 1.2949042,1.163064 0.02463,4.15e-4 0.185791,-0.116702 0.358143,-0.260259 z"
       style="fill:#ffffff;fill-opacity:1;stroke-width:0.0298507" />
    <path
       id="path896"
       d="M 9.6193935,11.044818 C 8.9874313,10.955817 8.3688997,10.658697 7.9144123,10.225809 7.0401615,9.3931057 6.7401362,8.159457 7.136333,7.0264902 7.6925039,5.4360607 9.4476892,4.5950738 11.021963,5.1647127 c 1.530666,0.5538596 2.362922,2.2090712 1.883038,3.7450288 -0.386061,1.2356585 -1.496168,2.0931855 -2.780422,2.1478025 -0.1752345,0.0075 -0.4025683,0.0017 -0.5051855,-0.01273 z M 10.626866,10.000222 C 11.198561,9.8075746 11.617129,9.4403991 11.869173,8.9104478 12.030827,8.5705499 12.068458,8.3714594 12.052322,7.9414842 12.036635,7.5234607 11.967743,7.2701027 11.785689,6.9609165 11.65835,6.7446527 11.285193,6.3714981 11.068925,6.2441556 10.687256,6.0194228 10.189822,5.9146357 9.7603201,5.9684907 9.2757017,6.0292568 8.8989726,6.2111207 8.5510922,6.5522388 8.3085018,6.7901137 8.1505164,7.0421961 8.0384223,7.3702576 7.9350484,7.6727981 7.9105166,8.1617299 7.9824811,8.4851964 c 0.1578625,0.7095615 0.6948944,1.2929758 1.3906532,1.5107609 0.2785568,0.087194 0.3056318,0.09026 0.7014927,0.079439 0.26979,-0.0074 0.406102,-0.02593 0.552239,-0.07517 z"
       style="fill:#ffffff;fill-opacity:1;stroke-width:0.0298507" />
  </g>
  <path
     id="path888"
     d="M 9.4925373,19.967953 C 7.4602597,19.873324 5.5103451,19.146179 3.8507463,17.864067 3.4092439,17.522987 2.4770133,16.590756 2.1359333,16.149254 0.95252824,14.617425 0.24631499,12.847323 0.0589329,10.943315 0.01894404,10.536985 0.01833645,9.4520203 0.05788642,9.0746269 0.27769985,6.9771251 1.0511668,5.1387081 2.3812902,3.5522388 2.7114204,3.1584848 3.4423027,2.4548901 3.8515633,2.1368584 5.3424707,0.97829176 7.054391,0.28580749 8.9552239,0.07239039 c 0.5401737,-0.06064832 1.5644751,-0.0598364 2.1194031,0.0016799 1.995676,0.22123009 3.911833,1.05072781 5.41791,2.34539431 0.386035,0.331846 1.007246,0.9752799 1.3098,1.3566548 1.107383,1.3958788 1.805037,3.0081502 2.079615,4.8059702 0.0809,0.5297032 0.112822,1.7398754 0.06081,2.3054574 -0.265394,2.88604 -1.738788,5.478111 -4.091154,7.197369 -1.485969,1.086039 -3.466524,1.797532 -5.209819,1.87157 -0.197015,0.0084 -0.43209,0.01922 -0.522388,0.02411 -0.0903,0.0049 -0.3723881,-7.97e-4 -0.6268657,-0.01264 z m 0.9052197,-2.455648 c 0.572668,-0.408647 1.342381,-1.10857 1.829041,-1.663202 1.614482,-1.839978 2.56682,-3.948735 2.897656,-6.4162672 0.07801,-0.5818639 0.07824,-1.9942062 3.73e-4,-2.3582089 C 14.888078,5.9678466 14.43473,5.104223 13.703522,4.3670499 12.915082,3.5721779 11.980641,3.0866233 10.865672,2.8924464 10.427721,2.8161753 9.6757036,2.8097362 9.2239525,2.8783893 7.5417081,3.1340415 6.101489,4.1851663 5.3353716,5.7164179 4.9670307,6.4526272 4.8075,7.1783006 4.806517,8.1220713 c -0.00255,2.4450477 0.8474896,4.9649647 2.3495746,6.9652737 0.6135009,0.816992 1.3714066,1.589585 2.1595953,2.201447 0.4775707,0.370732 0.5123259,0.38894 0.7170451,0.375635 0.142595,-0.0093 0.196052,-0.03155 0.365025,-0.152122 z"
     style="fill:#0066ff;fill-opacity:1;stroke-width:0.0298507" />
  <path
     id="path890"
     d="M 9.7535934,16.315896 C 8.3094584,15.129425 7.1711519,13.535458 6.5115828,11.776119 6.2192625,10.996382 5.9914777,10.046875 5.8921451,9.1940299 5.8211062,8.5841078 5.8202523,7.6524848 5.8904077,7.2985075 6.0707467,6.3885854 6.4284086,5.715562 7.0725845,5.0739694 7.6870305,4.4619874 8.351679,4.1054345 9.2238806,3.9198992 9.5771427,3.844753 10.418559,3.8442321 10.776119,3.9189381 c 0.826317,0.1726446 1.509022,0.5282421 2.096219,1.0918479 0.646652,0.620672 1.022236,1.292538 1.222463,2.186811 0.06157,0.2749869 0.06916,0.3837863 0.06748,0.9665821 -0.008,2.7524349 -1.136757,5.4328069 -3.131382,7.4355969 -0.367782,0.369287 -0.979782,0.908953 -1.028562,0.906993 -0.00949,-3.82e-4 -0.1214269,-0.08627 -0.2487416,-0.190873 z M 10.62583,11.030069 C 11.77767,10.787772 12.683239,9.9233543 12.971446,8.7910448 13.248429,7.7028284 12.934303,6.5941057 12.129477,5.8192737 11.712793,5.4181184 11.27959,5.1781535 10.716418,5.0365353 10.371577,4.9498198 9.6790528,4.9442633 9.3283582,5.0253982 8.6319646,5.1865122 7.9759464,5.6105971 7.5465936,6.1772252 7.3402661,6.4495209 7.1177866,6.9145704 7.024453,7.2686567 6.955447,7.5304496 6.945849,7.6240716 6.9464166,8.0298507 c 5.638e-4,0.4032087 0.010762,0.5010594 0.079335,0.7611941 0.3703278,1.4048582 1.6580243,2.3615142 3.0898364,2.2955012 0.170291,-0.0079 0.399899,-0.03327 0.510242,-0.05648 z"
     style="fill:#0066ff;fill-opacity:1;stroke-width:0.0298507" />
  <path
     id="path892"
     d="M 9.4993884,9.9995493 C 9.1730057,9.9140322 8.8341605,9.7244054 8.5985673,9.4954257 8.3519877,9.2557681 8.2009461,9.0247678 8.0815471,8.7047042 7.9655682,8.3938087 7.9357354,7.898935 8.0129721,7.5671642 8.1445144,7.0021232 8.5679079,6.4625588 9.0746269,6.2142126 9.4125139,6.0486119 9.6530376,5.9904518 10,5.9904518 c 0.345937,0 0.586285,0.05788 0.925373,0.2228445 0.205668,0.1000564 0.3019,0.1721232 0.508014,0.3804446 0.289563,0.2926628 0.436776,0.5423342 0.538585,0.9134325 0.08619,0.3141625 0.0726,0.8526651 -0.029,1.149543 -0.345753,1.0102284 -1.432889,1.6076486 -2.4435786,1.3428329 z"
     style="fill:#0066ff;fill-opacity:1;stroke-width:0.0298507" />
</svg>
