<?xml version="1.0" encoding="UTF-8" standalone="no"?>
<svg
    xmlns:dc="http://purl.org/dc/elements/1.1/"
    xmlns:cc="http://creativecommons.org/ns#"
    xmlns:rdf="http://www.w3.org/1999/02/22-rdf-syntax-ns#"
    xmlns="http://www.w3.org/2000/svg"
    xmlns:sodipodi="http://sodipodi.sourceforge.net/DTD/sodipodi-0.dtd"
    xmlns:inkscape="http://www.inkscape.org/namespaces/inkscape"
    inkscape:version="1.0 (4035a4f, 2020-05-01)"
    sodipodi:docname="specializations.svg"
    id="svg1009"
    version="1.1"
    viewBox="0 0 20 18.141"
    height="18.141"
    width="20">
  <metadata
     id="metadata1013">
    <rdf:RDF>
      <cc:Work
         rdf:about="">
        <dc:format>image/svg+xml</dc:format>
        <dc:type
           rdf:resource="http://purl.org/dc/dcmitype/StillImage" />
        <dc:title></dc:title>
      </cc:Work>
    </rdf:RDF>
  </metadata>
  <sodipodi:namedview
     inkscape:current-layer="Group_36"
     inkscape:window-maximized="0"
     inkscape:window-y="26"
     inkscape:window-x="445"
     inkscape:cy="9.0705004"
     inkscape:cx="10"
     inkscape:zoom="52.863677"
     showgrid="false"
     id="namedview1011"
     inkscape:window-height="1275"
     inkscape:window-width="1775"
     inkscape:pageshadow="2"
     inkscape:pageopacity="0"
     guidetolerance="10"
     gridtolerance="10"
     objecttolerance="10"
     borderopacity="1"
     bordercolor="#666666"
     pagecolor="#ffffff" />
  <defs
     id="defs1000">
    <clipPath
       id="clip-path">
      <rect
         fill="#fff"
         height="18.141"
         width="20"
         data-name="Rectangle 41"
         id="Rectangle_41" />
    </clipPath>
  </defs>
  <g
     clip-path="url(#clip-path)"
     data-name="Group 36"
     id="Group_36">
    <path
       fill="#ffdf22"
       transform="translate(-1.383)"
       d="M11.383,18.145A9.073,9.073,0,1,0,2.311,9.073,9.073,9.073,0,0,0,11.383,18.145Z"
       data-name="Path 27"
       id="Path_27" />
    <path
       stroke-width="1"
       stroke-miterlimit="10"
       stroke="#000"
       fill="none"
       transform="translate(-0.599 -11.666)"
       d="M6.821,19.49H3.16A2.16,2.16,0,0,0,1,21.65v1.634a2.16,2.16,0,0,0,2.16,2.16H6.387a2.169,2.169,0,0,0,2.092-1.61L8.912,22.2A2.161,2.161,0,0,0,6.821,19.49Z"
       data-name="Path 28"
       id="Path_28" />
    <path
       stroke-width="1"
       stroke-miterlimit="10"
       stroke="#000"
       fill="none"
       transform="translate(-17.316 -11.666)"
       d="M31.094,19.49h3.661a2.16,2.16,0,0,1,2.16,2.16v1.634a2.16,2.16,0,0,1-2.16,2.16H31.527a2.169,2.169,0,0,1-2.092-1.61L29,22.2A2.161,2.161,0,0,1,31.094,19.49Z"
       data-name="Path 29"
       id="Path_29" />
    <path
       style="fill:#ffffff"
       stroke-width="1"
       stroke-miterlimit="10"
       stroke-linecap="round"
       stroke="#000"
       fill="none"
       transform="translate(-12.491 -12.456)"
       d="M20.869,22.42a1.61,1.61,0,1,1,3.22,0"
       data-name="Path 30"
       id="Path_30" />
    <path
       stroke-width="1"
       stroke-miterlimit="10"
       stroke-linecap="round"
       stroke="#000"
       fill="none"
       transform="translate(-5.573 -7.506)"
       d="M9.311,13.351l2.718-.811"
       data-name="Path 31"
       id="Path_31" />
    <path
       stroke-width="1"
       stroke-miterlimit="10"
       stroke-linecap="round"
       stroke="#000"
       fill="none"
       transform="translate(-18.513 -5.608)"
       d="M33.647,10.181,30.93,9.37"
       data-name="Path 32"
       id="Path_32" />
    <path
       id="path1015"
       d="M 11.385884,8.3718318 C 11.121299,8.1415544 10.834098,7.9928496 10.479344,7.9024507 10.334717,7.8655965 10.266119,7.8600524 9.9716251,7.8614176 9.6892134,7.8627266 9.6068245,7.8696747 9.4886697,7.9021456 9.1304907,8.000579 8.8270422,8.1606772 8.5756157,8.3838694 8.5048864,8.4466559 8.4439752,8.4948902 8.4402576,8.4910566 8.4365397,8.4872229 8.3929888,8.4287554 8.3434777,8.3611286 8.2137697,8.1839616 7.9521046,7.9337875 7.7569231,7.8003331 7.4477867,7.5889625 7.1396362,7.4542127 6.7826449,7.3742956 L 6.5855572,7.330175 H 4.3912339 c -2.0690527,0 -2.2035027,0.00201 -2.3551143,0.035186 C 1.71092,7.4365244 1.3310392,7.5911994 1.1118376,7.741698 L 1.0293436,7.798336 1.0426276,7.6966713 C 1.0640957,7.532366 1.1627889,7.053254 1.2226854,6.8225682 1.470112,5.8696277 1.8794929,4.9386224 2.4078315,4.1273342 2.7645925,3.5795111 3.1097275,3.1592029 3.6230472,2.6474343 4.3575109,1.9151899 5.1521085,1.3510414 6.0748095,0.90673163 7.7753651,0.0878603 9.6843165,-0.17830222 11.55116,0.1431716 c 1.4153,0.24371734 2.800823,0.85042879 3.956076,1.7323398 0.726916,0.5549221 1.470379,1.3410901 1.979959,2.0936891 0.721864,1.0661231 1.20556,2.2451268 1.431769,3.4899207 0.06502,0.3577861 0.06604,0.3490585 -0.0329,0.2811329 C 18.668933,7.5911858 18.2878,7.4362444 17.96388,7.3653609 17.812247,7.3321788 17.677582,7.330175 15.599308,7.330175 h -2.203782 l -0.212338,0.050877 c -0.608554,0.1458134 -1.14191,0.4815613 -1.495528,0.941437 -0.06834,0.088878 -0.129142,0.1668526 -0.135109,0.1732761 -0.006,0.00642 -0.08097,-0.049347 -0.166667,-0.1239333 z M 5.2076831,5.9398167 C 5.975918,5.7109317 6.6354923,5.5100034 6.6734035,5.4933094 6.7638524,5.4534805 6.8878043,5.3253413 6.9276882,5.2304345 6.9746949,5.1185785 6.9697685,4.9304026 6.9169067,4.8186132 6.8278691,4.6303211 6.6027785,4.5021496 6.4079929,4.5288265 6.2506723,4.5503725 3.5543099,5.3658636 3.4625098,5.419662 3.3097633,5.5091773 3.2145437,5.7085776 3.2339755,5.8982382 3.2597936,6.1502321 3.4766499,6.3487256 3.7321898,6.354265 3.7837389,6.3553829 4.2928094,6.2123906 5.2076831,5.9398167 Z M 15.343934,5.033239 c 0.378511,-0.1664684 0.395844,-0.7215215 0.02837,-0.9086159 -0.105393,-0.05366 -2.817613,-0.857263 -2.92536,-0.866754 -0.266288,-0.023456 -0.506875,0.1800083 -0.531295,0.4493176 -0.01877,0.2070431 0.06644,0.3871753 0.227926,0.4818127 0.06831,0.040032 2.729094,0.8513753 2.907147,0.8864656 0.07273,0.014333 0.209342,-0.00534 0.293207,-0.042226 z"
       style="fill:#0066ff;fill-opacity:1;stroke-width:0.0189166" />
    <path
       id="path1017"
       d="M 2.2158271,13.231764 C 2.1534024,13.218036 2.054557,13.188926 1.9961708,13.167074 L 1.8900139,13.127344 1.791631,12.910147 C 1.3206341,11.870341 1.0555673,10.879476 0.9745901,9.8559104 L 0.9528608,9.581248 1.0116954,9.422722 C 1.208378,8.8927726 1.6775952,8.4857971 2.2245665,8.3707381 2.427705,8.3280066 6.3546198,8.3279766 6.5577436,8.3707049 7.1875297,8.5031845 7.6890487,8.9966827 7.8318215,9.624406 c 0.0409,0.1798236 0.043437,0.540275 0.00496,0.704047 -0.1036766,0.441233 -0.4923051,1.851634 -0.53794,1.952279 -0.2109854,0.465318 -0.6214672,0.808914 -1.1163617,0.934454 l -0.1787248,0.04534 -1.8372117,-0.0019 c -1.4457229,-0.0015 -1.8613975,-0.0072 -1.9507115,-0.02686 z"
       style="fill:#0066ff;fill-opacity:1;stroke-width:0.0189166" />
    <path
       id="path1019"
       d="M 9.4716837,18.119824 C 7.3679254,17.999475 5.2989452,17.105226 3.7872868,15.662929 3.3725544,15.267226 2.9997535,14.84745 2.6917449,14.429342 l -0.1074681,-0.145883 1.8020161,-0.0065 c 1.7618042,-0.0064 1.8056589,-0.0074 1.9652581,-0.04669 C 7.193747,14.022963 7.8411048,13.512322 8.1924405,12.77815 8.3045877,12.543801 8.3398843,12.428358 8.6001931,11.444531 8.8480062,10.507933 8.8835633,10.33503 8.8841741,10.063621 8.884978,9.7062057 8.9940883,9.4119402 9.2033662,9.2027697 9.4255235,8.9807262 9.635409,8.8886509 9.9483749,8.8759394 c 0.1804671,-0.00733 0.2218111,-0.00264 0.3618171,0.041008 0.28612,0.089208 0.538175,0.3047198 0.661545,0.5656348 0.07721,0.1632978 0.09858,0.2559443 0.125289,0.5432058 0.01112,0.119647 0.02898,0.281384 0.03969,0.359415 0.02555,0.186244 0.514563,2.02701 0.587589,2.211819 0.326093,0.825246 1.01432,1.408842 1.926599,1.633698 0.155837,0.03841 0.216291,0.03996 1.96207,0.05019 l 1.801279,0.01056 -0.172029,0.226999 c -0.737153,0.972704 -1.689708,1.816836 -2.710561,2.402034 -1.546277,0.886395 -3.292978,1.300398 -5.0599753,1.199314 z"
       style="fill:#0066ff;fill-opacity:1;stroke-width:0.0189166" />
    <path
       id="path1021"
       d="m 13.836334,13.22198 c -0.497053,-0.122223 -0.913365,-0.4617 -1.123231,-0.915928 -0.06143,-0.132962 -0.161925,-0.487322 -0.483038,-1.703309 -0.09686,-0.3668 -0.09987,-0.385826 -0.09862,-0.6242468 0.0015,-0.2810695 0.03632,-0.4431826 0.146536,-0.6817297 C 12.36754,9.1029319 12.481897,8.9468236 12.6543,8.7830574 12.829102,8.6170129 13.025265,8.499558 13.268422,8.4153448 l 0.183854,-0.063674 2.089912,-0.00521 c 1.80766,-0.00451 2.108633,-0.00134 2.228529,0.023455 0.532311,0.1100842 0.986226,0.490684 1.200485,1.0065845 0.05756,0.1386045 0.0613,0.1612092 0.05879,0.3560822 -0.0066,0.5133465 -0.182627,1.4357925 -0.404325,2.1186575 -0.10424,0.321073 -0.249662,0.69373 -0.396266,1.015459 -0.133967,0.293997 -0.122636,0.284468 -0.424312,0.356797 -0.146599,0.03515 -0.233969,0.03671 -1.988245,0.03553 -1.733952,-0.0012 -1.84292,-0.0032 -1.980515,-0.03704 z"
       style="fill:#0066ff;fill-opacity:1;stroke-width:0.0189166" />
    <path
       id="path1023"
       d="M 2.1496191,14.235267 C 1.1789038,14.071363 0.36615292,13.391252 0.05962505,12.486359 L 0.01204547,12.345901 V 10.802848 9.2597952 L 0.06090808,9.113074 C 0.17858122,8.7597337 0.40259331,8.4065001 0.69346135,8.115632 1.0722118,7.7368816 1.5036462,7.5039966 2.0546312,7.3808828 2.18342,7.3521059 2.40497,7.3490915 4.3912339,7.3490915 c 2.3739928,0 2.2401154,-0.00547 2.6083503,0.1065876 0.5129015,0.156082 1.0041954,0.493963 1.3088235,0.9001261 0.06072,0.080959 0.1167822,0.1549092 0.1245825,0.1643344 0.0078,0.00943 0.069787,-0.03488 0.1377498,-0.098455 C 8.8125822,8.195453 9.1286745,8.0219382 9.4650892,7.930743 9.6335051,7.885089 9.6804899,7.880647 9.9905417,7.881065 c 0.3065563,4.137e-4 0.3588003,0.00538 0.5240993,0.049794 0.331494,0.089074 0.660181,0.2717275 0.910715,0.5060899 l 0.120657,0.1128682 0.08195,-0.1179901 c 0.127106,-0.1829952 0.457849,-0.5018741 0.659788,-0.6361212 0.238569,-0.1585983 0.397613,-0.2365071 0.660938,-0.3237662 0.418975,-0.1388375 0.33904,-0.1351308 2.745198,-0.1273004 2.359694,0.00768 2.17746,-0.00125 2.575357,0.1262062 0.762808,0.244349 1.411883,0.8838938 1.671375,1.6468306 l 0.04733,0.1391581 v 1.5445329 1.544534 l -0.04733,0.139158 c -0.259989,0.7644 -0.889463,1.384903 -1.668101,1.644325 -0.38971,0.129842 -0.279816,0.124259 -2.446215,0.124259 -2.166399,0 -2.056505,0.0056 -2.446215,-0.124259 -0.771421,-0.257018 -1.392015,-0.859906 -1.663702,-1.616235 -0.04611,-0.128352 -0.446595,-1.612951 -0.52301,-1.93878 -0.02074,-0.08844 -0.0547,-0.323332 -0.07548,-0.521993 C 11.075566,9.6475651 11.038296,9.5177648 10.910261,9.3292199 10.811431,9.1836912 10.676638,9.0644054 10.515074,8.9795059 10.339965,8.8874889 10.19684,8.8529594 9.9905347,8.8529594 c -0.3243234,0 -0.5576907,0.095365 -0.7869401,0.3215819 -0.2388041,0.2356449 -0.337601,0.4932108 -0.338268,0.8818727 -4.692e-4,0.273633 -0.03156,0.424336 -0.2863721,1.388117 -0.2549261,0.964213 -0.3045891,1.125729 -0.4115508,1.338465 -0.3930907,0.781819 -1.1158503,1.312325 -1.9785376,1.452249 -0.2331402,0.03781 -3.8153175,0.03783 -4.039254,1.9e-5 z M 6.2734336,13.216292 C 6.777485,13.047986 7.1534772,12.702754 7.3381365,12.238695 7.3651195,12.170886 7.4957359,11.711213 7.6283952,11.2172 l 0.2411987,-0.898205 0.00115,-0.3215822 C 7.8720928,9.6175783 7.8527564,9.5251587 7.7124257,9.2407496 7.5455599,8.9025634 7.2987004,8.6559887 6.9638888,8.4930769 6.6081446,8.3199798 6.8131239,8.3327537 4.3912339,8.3327537 c -2.411966,0 -2.2175853,-0.011556 -2.5566407,0.1519981 C 1.3912755,8.6986006 1.0527209,9.1170226 0.9397407,9.5907063 0.9036093,9.7421916 0.9013898,9.8122575 0.9013898,10.801367 c 0,0.989343 0.002211,1.059093 0.0383472,1.209838 0.1469999,0.613217 0.6501855,1.105466 1.2666318,1.239102 0.1018056,0.02207 0.4483761,0.02605 2.0146158,0.02317 l 1.8916581,-0.0035 z m 11.6526134,0 c 0.462078,-0.154291 0.809398,-0.45303 1.011854,-0.870321 0.158712,-0.327128 0.160709,-0.346324 0.160709,-1.544604 0,-0.9891095 -0.0022,-1.0591754 -0.03835,-1.2106607 C 18.947274,9.1169987 18.608635,8.6984899 18.165407,8.4847952 17.82812,8.3221783 18.027749,8.3347444 15.674974,8.3280292 c -2.320336,-0.00662 -2.242601,-0.010229 -2.540847,0.1178645 -0.214498,0.092124 -0.340136,0.1726797 -0.497814,0.3191849 -0.383917,0.356714 -0.590096,0.9197014 -0.519571,1.4187284 0.0249,0.176205 0.455231,1.809933 0.533281,2.024581 0.189359,0.520763 0.651683,0.916609 1.218418,1.043218 0.09134,0.0204 0.48285,0.02467 2.005157,0.02187 l 1.891658,-0.0035 z"
       style="fill:#ffffff;fill-opacity:1;stroke-width:0.0189166" />
    <path
       id="path1025"
       d="M 3.5804705,6.3072935 C 3.5200878,6.2880185 3.4578763,6.2472864 3.3991966,6.1886066 3.1989115,5.9883216 3.1978041,5.7025848 3.396547,5.5049909 3.500323,5.401815 3.4200845,5.42908 5.1289805,4.916311 6.4615957,4.5164483 6.5004037,4.5082652 6.6637669,4.5926852 6.9366353,4.7336933 7.0238686,5.0447344 6.862,5.2995105 c -0.028743,0.045241 -0.085677,0.10525 -0.1265185,0.1333529 -0.087606,0.060281 -2.8125578,0.882554 -2.9684948,0.895764 -0.055523,0.0047 -0.1325484,-0.00411 -0.1865162,-0.021334 z"
       style="fill:#ffffff;fill-opacity:1;stroke-width:0.0189166" />
    <path
       id="path1027"
       d="M 15.012894,5.0482724 C 13.942779,4.7285538 12.348917,4.2492501 12.27342,4.2244623 11.930874,4.1119946 11.819195,3.7034925 12.058562,3.4385423 c 0.141272,-0.1563712 0.318063,-0.1975247 0.552053,-0.1285078 0.963272,0.2841226 2.685409,0.8020013 2.73281,0.8218067 0.08271,0.034557 0.195743,0.1507637 0.238737,0.2454344 0.104796,0.2307565 -0.02142,0.5478046 -0.257323,0.6463702 -0.08575,0.035827 -0.235015,0.047611 -0.311945,0.024627 z"
       style="fill:#ffffff;fill-opacity:1;stroke-width:0.0189166" />
  </g>
</svg>
