<?xml version="1.0" encoding="UTF-8" standalone="no"?>
<svg
    xmlns:dc="http://purl.org/dc/elements/1.1/"
    xmlns:cc="http://creativecommons.org/ns#"
    xmlns:rdf="http://www.w3.org/1999/02/22-rdf-syntax-ns#"
    xmlns="http://www.w3.org/2000/svg"
    xmlns:sodipodi="http://sodipodi.sourceforge.net/DTD/sodipodi-0.dtd"
    xmlns:inkscape="http://www.inkscape.org/namespaces/inkscape"
    inkscape:version="1.0 (4035a4f, 2020-05-01)"
    sodipodi:docname="salary1.svg"
    id="svg932"
    version="1.1"
    viewBox="0 0 21.405 19.104"
    height="19.104"
    width="21.405">
  <metadata
     id="metadata938">
    <rdf:RDF>
      <cc:Work
         rdf:about="">
        <dc:format>image/svg+xml</dc:format>
        <dc:type
           rdf:resource="http://purl.org/dc/dcmitype/StillImage" />
        <dc:title></dc:title>
      </cc:Work>
    </rdf:RDF>
  </metadata>
  <defs
     id="defs936" />
  <sodipodi:namedview
     inkscape:current-layer="svg932"
     inkscape:window-maximized="0"
     inkscape:window-y="110"
     inkscape:window-x="350"
     inkscape:cy="9.552"
     inkscape:cx="10.7025"
     inkscape:zoom="41.404941"
     showgrid="false"
     id="namedview934"
     inkscape:window-height="1125"
     inkscape:window-width="2126"
     inkscape:pageshadow="2"
     inkscape:pageopacity="0"
     guidetolerance="10"
     gridtolerance="10"
     objecttolerance="10"
     borderopacity="1"
     bordercolor="#666666"
     pagecolor="#ffffff" />
  <g
     transform="translate(-0.5)"
     data-name="Group 38"
     id="Group_38">
    <path
       fill="#ffdf22"
       transform="translate(-0.659)"
       d="M11.692,19.1A9.552,9.552,0,1,0,2.141,9.552,9.552,9.552,0,0,0,11.692,19.1Z"
       data-name="Path 36"
       id="Path_36" />
    <path
       style="fill:#ffffff"
       stroke-width="1"
       stroke-miterlimit="10"
       stroke-linejoin="round"
       stroke-linecap="round"
       stroke="#000"
       fill="none"
       transform="translate(0 -6.703)"
       d="M21.405,11.61H1v9.129H21.405Z"
       data-name="Path 37"
       id="Path_37" />
    <path
       stroke-width="1"
       stroke-miterlimit="10"
       stroke-linejoin="round"
       stroke-linecap="round"
       stroke="#000"
       fill="none"
       transform="translate(-9.838 -9.053)"
       d="M20.972,21.546a2.933,2.933,0,1,0-2.933-2.933A2.933,2.933,0,0,0,20.972,21.546Z"
       data-name="Path 38"
       id="Path_38" />
    <path
       stroke-width="1"
       stroke-miterlimit="10"
       stroke-linejoin="round"
       stroke-linecap="round"
       stroke="#000"
       fill="none"
       transform="translate(-0.041 -6.749)"
       d="M4,11.69A2.935,2.935,0,0,1,1.07,14.623"
       data-name="Path 39"
       id="Path_39" />
    <path
       stroke-width="1"
       stroke-miterlimit="10"
       stroke-linejoin="round"
       stroke-linecap="round"
       stroke="#000"
       fill="none"
       transform="translate(-23.723 -6.79)"
       d="M45.023,14.693A2.935,2.935,0,0,1,42.09,11.76"
       data-name="Path 40"
       id="Path_40" />
    <path
       stroke-width="1"
       stroke-miterlimit="10"
       stroke-linejoin="round"
       stroke-linecap="round"
       stroke="#000"
       fill="none"
       transform="translate(-23.845 -15.098)"
       d="M42.3,29.083a2.935,2.935,0,0,1,2.933-2.933"
       data-name="Path 41"
       id="Path_41" />
    <path
       stroke-width="1"
       stroke-miterlimit="10"
       stroke-linejoin="round"
       stroke-linecap="round"
       stroke="#000"
       fill="none"
       transform="translate(-0.087 -15.098)"
       d="M1.15,26.15a2.935,2.935,0,0,1,2.933,2.933"
       data-name="Path 42"
       id="Path_42" />
    <path
       transform="translate(0.5)"
       id="path940"
       d="M 2.5295065,4.365421 C 2.5999877,4.2423231 2.8989299,3.8287266 3.0837516,3.5986043 4.2655781,2.1271065 5.790861,1.0688295 7.571503,0.48489674 8.5634085,0.15961743 9.4613292,0.01708925 10.521363,0.0166615 c 1.538326,-6.2075e-4 2.920523,0.32491693 4.289445,1.0102584 1.502073,0.7520031 2.830005,1.9358895 3.704066,3.3022735 l 0.04249,0.066417 h -8.022569 c -6.4111738,0 -8.0190981,-0.00606 -8.0052845,-0.03019 z"
       style="fill:#0066ff;fill-opacity:1;stroke-width:0.0241517" />
    <path
       transform="translate(0.5)"
       id="path942"
       d="M 3.9440937,13.340088 C 3.8838456,12.952557 3.6780771,12.453075 3.4144907,12.054531 3.2458607,11.799561 2.8805374,11.417324 2.6150323,11.218059 2.2389681,10.935818 1.7268494,10.707243 1.25502,10.611042 l -0.2094526,-0.04271 -0.016604,-0.22147 c -0.018478,-0.246458 0.00227,-1.7852886 0.025854,-1.9179203 L 1.069851,8.3444147 1.3033893,8.2931561 C 2.6354523,8.0007862 3.6954258,6.872506 3.9269286,5.5005512 l 0.015283,-0.090569 h 6.7204464 6.720446 l 0.0307,0.1871758 c 0.06366,0.3881387 0.27277,0.9094209 0.506219,1.2619266 0.341463,0.5156053 0.792583,0.9147511 1.348265,1.1929308 0.212402,0.1063306 0.616467,0.2561716 0.690799,0.2561716 0.03883,0 0.04867,0.062091 0.08988,0.5675652 0.04316,0.5293619 0.01141,1.6960258 -0.04789,1.7592298 -0.01048,0.01117 -0.112291,0.05164 -0.226251,0.08993 -1.144667,0.384651 -2.017939,1.38037 -2.260234,2.577151 l -0.04268,0.210812 -6.749534,0.0061 -6.7495332,0.0061 z m 7.2673743,-0.385165 c 0.740898,-0.125929 1.389319,-0.473669 1.921273,-1.030353 0.464577,-0.486176 0.759847,-1.070207 0.894245,-1.768777 0.05604,-0.2912757 0.05652,-0.88391 9.59e-4,-1.1888333 C 13.765916,7.5288288 12.665292,6.4282054 11.227161,6.1661766 10.923893,6.1109207 10.333243,6.1114835 10.026253,6.1673208 9.5295708,6.2576603 8.9706075,6.500485 8.5737964,6.7982965 8.3221142,6.9871871 7.9516448,7.3705954 7.7971201,7.6020991 7.51326,8.0273682 7.3142473,8.5245111 7.2352866,9.0055848 c -0.061122,0.3723918 -0.038324,1.0078762 0.048604,1.3548102 0.2325112,0.927959 0.7772872,1.669126 1.5879721,2.160433 0.3360695,0.203671 0.8530984,0.389398 1.2421743,0.446214 0.249252,0.0364 0.851088,0.02975 1.097431,-0.01212 z"
       style="fill:#0066ff;fill-opacity:1;stroke-width:0.0241517" />
    <path
       transform="translate(0.5)"
       id="path944"
       d="M 3.9779892,13.476652 C 3.9726241,13.456727 3.960891,13.386084 3.9519157,13.319666 3.9148201,13.045159 3.7090473,12.514095 3.5139226,12.18928 3.3218003,11.869464 2.9571061,11.464398 2.6479061,11.227395 2.2984636,10.959546 1.773484,10.71718 1.3247749,10.616548 1.1607412,10.57976 1.0771349,10.549238 1.060892,10.520214 1.0459475,10.493509 1.040232,10.092017 1.0455048,9.4393065 1.0550732,8.254851 1.0327772,8.3594083 1.2864257,8.3095058 1.3673466,8.2935857 1.5429317,8.2424885 1.6766147,8.1959563 2.7742244,7.8139034 3.6125345,6.8811205 3.8813304,5.7427811 3.9167098,5.5929504 3.9494822,5.4567763 3.9541575,5.440172 c 0.00677,-0.024059 1.3697068,-0.03019 6.7113575,-0.03019 3.686571,0 6.702856,0.00562 6.702856,0.012497 0,0.00687 0.02278,0.1176573 0.05063,0.2461864 0.266392,1.2295505 1.113805,2.1815213 2.294552,2.5776656 0.176906,0.059353 0.254211,0.097229 0.266556,0.1306025 0.0096,0.025853 0.03041,0.1997783 0.04633,0.3865005 0.02925,0.3431059 0.01846,1.660725 -0.0147,1.795787 -0.01335,0.05437 -0.04492,0.07609 -0.188532,0.129717 -0.289796,0.108214 -0.668911,0.296709 -0.884973,0.440004 -0.266993,0.177075 -0.696834,0.607424 -0.885484,0.886531 -0.268958,0.397923 -0.444603,0.803305 -0.542593,1.252281 -0.02638,0.120851 -0.05023,0.222004 -0.05301,0.224785 -0.0028,0.0028 -3.034533,0.0085 -6.737227,0.0127 -5.9680305,0.0068 -6.7332773,0.0035 -6.7419248,-0.02859 z M 11.259772,12.954605 C 12.469966,12.74722 13.50993,11.846941 13.902492,10.666846 14.045257,10.237674 14.071475,10.063765 14.07056,9.552 14.069935,9.2019957 14.05931,9.0444089 14.025778,8.8878281 13.95753,8.5691277 13.850735,8.2732792 13.69399,7.9686902 13.216646,7.0411084 12.362305,6.3968124 11.306293,6.1680225 11.027438,6.1076073 10.223207,6.1073783 9.9558472,6.167638 9.2566396,6.325231 8.6723748,6.6429571 8.1893868,7.1282481 7.6847653,7.6352753 7.3696667,8.2369046 7.235738,8.9490836 7.17823,9.2548894 7.197438,10.067143 7.268843,10.349006 c 0.3196377,1.261733 1.1996411,2.179431 2.4313617,2.535508 0.3177073,0.09185 0.4130323,0.103161 0.8953953,0.106281 0.303481,0.002 0.505894,-0.0091 0.664172,-0.03619 z"
       style="fill:#0066ff;fill-opacity:1;stroke-width:0.0241517" />
    <path
       transform="translate(0.5)"
       id="path946"
       d="M 9.7122804,19.054491 C 6.7870843,18.778878 4.2114188,17.248957 2.5910365,14.824539 2.4961221,14.682528 2.4184649,14.56026 2.4184649,14.552832 c 0,-0.0074 3.6517381,-0.0135 8.1149731,-0.0135 4.463236,0 8.114974,0.0062 8.114974,0.01379 0,0.02557 -0.307463,0.479451 -0.489661,0.722836 -0.276642,0.369546 -0.604209,0.738566 -0.986582,1.111433 -1.476902,1.440186 -3.327896,2.336071 -5.419069,2.62284 -0.411345,0.05641 -1.631126,0.08286 -2.0408196,0.04426 z"
       style="fill:#0066ff;fill-opacity:1;stroke-width:0.0241517" />
    <path
       transform="translate(0.5)"
       id="path948"
       d="M 10.213185,11.942643 C 9.6437339,11.834773 9.1030682,11.514404 8.7566195,11.079562 8.5623648,10.835745 8.3552719,10.42376 8.2861977,10.143717 8.2147629,9.8541036 8.1991473,9.4421873 8.2487995,9.1572089 8.3341651,8.6672548 8.5535479,8.2406023 8.9031982,7.8845439 c 0.3331769,-0.339283 0.6835515,-0.5475384 1.1230548,-0.66752 0.178847,-0.048824 0.258174,-0.055828 0.615868,-0.054378 0.343707,0.00139 0.442048,0.010265 0.603793,0.054471 0.212977,0.058208 0.577948,0.2253959 0.755325,0.3460032 0.164221,0.1116621 0.476385,0.4190798 0.598529,0.5894293 0.142589,0.1988623 0.313686,0.5616203 0.375278,0.7956584 0.06523,0.2478785 0.08824,0.7381392 0.04672,0.9955365 -0.152817,0.9473037 -0.849349,1.7069357 -1.800003,1.9630677 -0.254852,0.06866 -0.743592,0.08603 -1.008577,0.03583 z"
       style="fill:#0066ff;fill-opacity:1;stroke-width:0.0241517" />
    <path
       transform="translate(0.5)"
       id="path950"
       d=""
       style="fill:#0066ff;fill-opacity:1;stroke-width:0.0241517" />
    <path
       transform="translate(0.5)"
       id="path952"
       d="m 1.8025842,13.389777 c -0.1924765,-0.435223 -0.47687,-1.279513 -0.5552572,-1.648414 -0.016268,-0.07656 -0.014144,-0.07997 0.039599,-0.06371 0.7206229,0.218095 1.3367311,0.831728 1.578399,1.572057 0.098412,0.301478 0.1433317,0.275246 -0.471316,0.275246 H 1.8623665 Z"
       style="fill:#0066ff;fill-opacity:1;stroke-width:0.0241517" />
    <path
       transform="translate(0.5)"
       id="path954"
       d="M 1.296124,7.1671628 C 1.361728,6.8580703 1.6621708,6.0112087 1.8616862,5.5730063 l 0.074225,-0.163024 h 0.4827937 c 0.2655365,0 0.4827936,0.00294 0.4827936,0.00652 0,0.045719 -0.1108339,0.3829591 -0.1670039,0.5081514 C 2.5055384,6.4349584 2.0232598,6.9220815 1.5301131,7.1411371 1.267529,7.2577769 1.2771178,7.2567104 1.296124,7.1671628 Z"
       style="fill:#0066ff;fill-opacity:1;stroke-width:0.0241517" />
    <path
       transform="translate(0.5)"
       id="path956"
       d="M 19.610223,7.0723985 C 19.184495,6.8439584 18.775619,6.3830581 18.569172,5.8988873 18.508647,5.7569418 18.431047,5.4969076 18.431047,5.4360401 c 0,-0.019426 0.102705,-0.025413 0.35451,-0.020665 l 0.35451,0.00668 0.153455,0.3581637 c 0.201859,0.4711423 0.492463,1.3259873 0.461346,1.3571042 -0.0045,0.00454 -0.06963,-0.024676 -0.144645,-0.064928 z"
       style="fill:#0066ff;fill-opacity:1;stroke-width:0.0241517" />
    <path
       transform="translate(0.5)"
       id="path958"
       d="m 18.554051,13.350494 c 0.101699,-0.373697 0.311933,-0.738232 0.600263,-1.040829 0.18216,-0.191172 0.608376,-0.501659 0.624059,-0.45461 0.02349,0.07048 -0.282029,0.999954 -0.473486,1.44046 l -0.09447,0.217365 -0.352094,0.0067 -0.352095,0.0067 z"
       style="fill:#0066ff;fill-opacity:1;stroke-width:0.0241517" />
  </g>
  <path
     id="path960"
     d="M 0.31726641,14.488164 C 0.23971789,14.457403 0.10716178,14.330398 0.05557496,14.237431 0.01853665,14.170683 0.01478644,13.801654 0.0079598,9.552 0.00273567,6.2999202 0.00828223,4.9029947 0.02676074,4.8168968 0.05892429,4.6670354 0.16984378,4.5261742 0.30348204,4.465477 0.3986269,4.4222632 0.73397612,4.4208232 10.7025,4.4208232 c 9.968525,0 10.303874,0.00144 10.399019,0.044654 0.133638,0.060697 0.244557,0.2015584 0.276721,0.3514198 0.01848,0.086098 0.02402,1.4830234 0.0188,4.7351032 -0.0068,4.2496538 -0.01058,4.6186828 -0.04762,4.6854308 -0.05396,0.09724 -0.185738,0.220607 -0.269302,0.252112 -0.09178,0.0346 -20.67559049,0.03324 -20.76285759,-0.0014 z M 2.9596416,13.48269 C 2.9192312,13.306496 2.7933781,12.965329 2.7168633,12.824556 2.4087576,12.257703 1.8656788,11.816729 1.2631,11.644117 1.1746033,11.618766 1.0777433,11.592437 1.0478555,11.585607 L 0.9935142,11.57319 v 0.987959 0.987959 h 0.9906801 0.99068 z m 14.5390054,0.01208 c 0.0857,-0.446146 0.213067,-0.819552 0.390825,-1.14575 0.472855,-0.867723 1.3565,-1.521559 2.313109,-1.711539 l 0.208905,-0.04149 V 9.4815717 8.3671543 L 20.213205,8.3359548 C 19.272508,8.187937 18.363553,7.5549123 17.849667,6.6899133 17.65115,6.3557603 17.469716,5.8508632 17.426611,5.5126271 L 17.410452,5.3858306 H 10.666466 3.9224808 L 3.8805798,5.5968151 C 3.674671,6.6336295 2.9943165,7.5235706 2.0422734,8.0014216 1.833156,8.1063822 1.4426118,8.2442095 1.2471071,8.2820446 1.1674065,8.2974689 1.0777433,8.315302 1.0478555,8.3216739 L 0.9935142,8.333259 V 9.4632196 10.59318 l 0.1871757,0.0307 c 0.3869902,0.06347 0.9192949,0.278888 1.2683829,0.5133 0.7083839,0.47568 1.2347648,1.221911 1.4298106,2.026991 0.033592,0.138657 0.061091,0.274745 0.061108,0.302419 1.71e-5,0.02767 0.00728,0.05756 0.016132,0.06642 0.00886,0.0089 3.0571976,0.0161 6.7740936,0.0161 h 6.757993 z m 2.912839,-0.923803 c 0,-0.881165 -0.0038,-0.978144 -0.0387,-0.978144 -0.07544,0 -0.482832,0.148847 -0.637544,0.232939 -0.637937,0.346743 -1.078564,0.934671 -1.241799,1.656932 l -0.01501,0.06642 h 0.966528 0.966528 z m 0,-6.1828365 V 5.3858306 h -1.012229 -1.01223 l 0.03284,0.1388723 c 0.214209,0.905852 0.943616,1.6332367 1.833965,1.8288798 0.08007,0.017594 0.148297,0.033081 0.151618,0.034415 0.0033,0.00133 0.006,-0.448608 0.006,-0.9998707 z M 1.2833347,7.2641366 C 1.8927508,7.0717197 2.4163864,6.6185692 2.7142286,6.0258509 2.7963372,5.8624512 2.9256507,5.4923871 2.9256507,5.4208114 c 0,-0.029957 -0.138745,-0.034981 -0.9660682,-0.034981 H 0.9935142 v 0.9786043 0.9786042 l 0.0664172,-0.014668 c 0.03653,-0.00807 0.1370609,-0.036973 0.2234033,-0.064234 z"
     style="fill:#ffffff;fill-opacity:1;stroke-width:0.0241517" />
  <path
     id="path962"
     d="M 10.052029,12.931688 C 9.8014673,12.88816 9.3409176,12.736317 9.1161646,12.623133 8.4537975,12.28957 7.8469878,11.668567 7.5416882,11.011829 7.3236138,10.542723 7.2484991,10.214975 7.2320266,9.6606827 7.2132361,9.0283886 7.2994316,8.614105 7.5611631,8.0787459 8.2505408,6.6686571 9.756713,5.9108485 11.283089,6.2061131 c 1.380006,0.2669505 2.44904,1.3504404 2.717424,2.7541701 0.05954,0.3114194 0.0603,0.8959646 0.0016,1.1946328 -0.274948,1.397851 -1.291919,2.446625 -2.671626,2.755173 -0.253971,0.0568 -1.002963,0.06945 -1.278416,0.0216 z m 0.99147,-0.963739 c 0.410746,-0.07194 0.791658,-0.242966 1.12084,-0.503263 0.451695,-0.357171 0.760771,-0.874899 0.870405,-1.457996 0.05974,-0.3177466 0.03819,-0.8155962 -0.04793,-1.106786 C 12.715381,7.982026 12.025879,7.3493794 11.090352,7.1598174 10.785693,7.0980856 10.258442,7.1204545 9.9658733,7.2075239 9.6694613,7.2957373 9.39082,7.4343623 9.1593815,7.6087565 8.2129714,8.3218979 7.9167336,9.6455068 8.4690938,10.693005 c 0.495797,0.940231 1.5381202,1.45643 2.5744052,1.274944 z"
     style="fill:#ffffff;fill-opacity:1;stroke-width:0.0241517" />
</svg>
